HIERARCHY
ROOT Hips
{
  OFFSET 42.3828 80.7952 -21.1474
  CHANNELS 6 Xposition Yposition Zposition Zrotation Xrotation Yrotation
  JOINT Chest
  {
    OFFSET 1.23234e-007 14.8421 1.27317e-009
    CHANNELS 6 Xposition Yposition Zposition Zrotation Xrotation Yrotation
    JOINT Neck
    {
      OFFSET 0.51659 29.8236 6.51843
      CHANNELS 6 Xposition Yposition Zposition Zrotation Xrotation Yrotation
      JOINT Head
      {
        OFFSET 1.16803e-007 7.47049 6.44171e-007
        CHANNELS 6 Xposition Yposition Zposition Zrotation Xrotation Yrotation
        End Site
        {
          OFFSET -4.32676e-008 16.2908 2.16786e-007
        }
      }
    }
    JOINT LeftCollar
    {
      OFFSET 6.64893 27.3161 3.27471
      CHANNELS 6 Xposition Yposition Zposition Zrotation Xrotation Yrotation
      JOINT LeftUpArm
      {
        OFFSET 10.8584 2.41798 -0.945791
        CHANNELS 6 Xposition Yposition Zposition Zrotation Xrotation Yrotation
        JOINT LeftLowArm
        {
          OFFSET 3.77631 -24.5904 -1.70468
          CHANNELS 6 Xposition Yposition Zposition Zrotation Xrotation Yrotation
          JOINT LeftHand
          {
            OFFSET 1.01026 -21.1231 1.74131
            CHANNELS 6 Xposition Yposition Zposition Zrotation Xrotation Yrotation
            End Site
            {
              OFFSET 1.17583e-006 -9.81266 -2.89439e-008
            }
          }
        }
      }
    }
    JOINT RightCollar
    {
      OFFSET -6.11406 27.2248 4.23427
      CHANNELS 6 Xposition Yposition Zposition Zrotation Xrotation Yrotation
      JOINT RightUpArm
      {
        OFFSET -10.4566 2.3285 -0.910794
        CHANNELS 6 Xposition Yposition Zposition Zrotation Xrotation Yrotation
        JOINT RightLowArm
        {
          OFFSET -3.86856 -25.191 -1.74633
          CHANNELS 6 Xposition Yposition Zposition Zrotation Xrotation Yrotation
          JOINT RightHand
          {
            OFFSET -1.04759 -20.6242 1.75213
            CHANNELS 6 Xposition Yposition Zposition Zrotation Xrotation Yrotation
            End Site
            {
              OFFSET -2.03487e-006 -9.50367 -4.31372e-006
            }
          }
        }
      }
    }
  }
  JOINT LeftUpLeg
  {
    OFFSET 9 -3.38008e-006 -5.22998e-009
    CHANNELS 6 Xposition Yposition Zposition Zrotation Xrotation Yrotation
    JOINT LeftLowLeg
    {
      OFFSET -0.575 -51.431 3.90177
      CHANNELS 6 Xposition Yposition Zposition Zrotation Xrotation Yrotation
      JOINT LeftFoot
      {
        OFFSET 2.13082e-007 -43.5882 -3.90177
        CHANNELS 6 Xposition Yposition Zposition Zrotation Xrotation Yrotation
        End Site
        {
          OFFSET 7.44796e-007 -6.93413 15.0046
        }
      }
    }
  }
  JOINT RightUpLeg
  {
    OFFSET -9 6.86154e-007 -3.19538e-009
    CHANNELS 6 Xposition Yposition Zposition Zrotation Xrotation Yrotation
    JOINT RightLowLeg
    {
      OFFSET 0.575 -51.4311 3.90177
      CHANNELS 6 Xposition Yposition Zposition Zrotation Xrotation Yrotation
      JOINT RightFoot
      {
        OFFSET -7.46079e-007 -43.5882 -3.90177
        CHANNELS 6 Xposition Yposition Zposition Zrotation Xrotation Yrotation
        End Site
        {
          OFFSET 4.66716e-007 -6.93413 15.0046
        }
      }
    }
  }
}
MOTION
Frames:	9
Frame Time:	0.0333333
66.4918 95.2926 -15.6237 -26.7237 3.89873 -13.2784 1.23234e-007 14.8421 1.27317e-009 30.3216 14.1836 -9.32273 0.51659 29.8236 6.51843 23.7497 -14.6951 -22.9429 1.16803e-007 7.47049 6.44171e-007 3.60281 31.0903 -16.9998 6.64893 27.3161 3.27471 -2.94784 5.93879 -4.20517 10.8584 2.41798 -0.945791 -22.9143 -12.1361 -11.9985 3.77631 -24.5904 -1.70468 18.8029 -29.9985 62.7654 1.01026 -21.1231 1.74131 -12.4584 -1.75638 -2.43356 -6.11406 27.2248 4.23427 -1.96452 7.32629 3.42623 -10.4566 2.3285 -0.910794 -13.4434 -1.77134 -24.9302 -3.86856 -25.191 -1.74633 -17.744 -5.37211 26.0253 -1.04759 -20.6242 1.75213 -21.7846 10.6482 -1.17687 9 -3.38008e-006 -5.22998e-009 29.2005 -15.6227 24.1483 -0.575 -51.431 3.90177 4.56724 46.688 -10.7326 2.13082e-007 -43.5882 -3.90177 20.0989 -23.3267 2.09273 -9 6.86154e-007 -3.19538e-009 -40.9842 -19.8765 -46.4303 0.575 -51.4311 3.90177 8.49289 33.9623 33.6052 -7.46079e-007 -43.5882 -3.90177 -12.8641 0.916397 1.23017 
71.1581 96.5722 -15.3808 -28.825 4.89227 -12.385 1.23234e-007 14.8421 1.27317e-009 36.5672 13.5621 -11.5301 0.51659 29.8236 6.51843 25.2172 -14.2849 -24.5176 1.16803e-007 7.47049 6.44171e-007 2.77493 31.7124 -17.7098 6.64893 27.3161 3.27471 -2.94784 5.93879 -4.20517 10.8584 2.41798 -0.945791 -26.5964 -17.2762 -14.0123 3.77631 -24.5904 -1.70468 10.3696 -18.5298 83.9635 1.01026 -21.1231 1.74131 2.16565 -0.931836 0.00651772 -6.11406 27.2248 4.23427 -1.96452 7.32629 3.42623 -10.4566 2.3285 -0.910794 -18.4248 -2.03782 -21.472 -3.86856 -25.191 -1.74633 -17.0434 -4.71034 24.5595 -1.04759 -20.6242 1.75213 -22.4632 10.9664 -1.15503 9 -3.38008e-006 -5.22998e-009 29.0586 -14.9785 26.743 -0.575 -51.431 3.90177 2.93261 42.9186 -11.8897 2.13082e-007 -43.5882 -3.90177 23.2019 -22.0233 2.16301 -9 6.86154e-007 -3.19538e-009 -37.6326 -17.2775 -31.4862 0.575 -51.4311 3.90177 3.53929 10.3111 39.4641 -7.46079e-007 -43.5882 -3.90177 -13.949 2.78932 1.54472 
72.138 95.7111 -15.492 -27.8825 6.57591 -7.53461 1.23234e-007 14.8421 1.27317e-009 34.3912 7.02058 -11.8363 0.51659 29.8236 6.51843 26.6066 -14.4268 -25.3314 1.16803e-007 7.47049 6.44171e-007 2.17733 30.2638 -17.8818 6.64893 27.3161 3.27471 -2.94784 5.93879 -4.20517 10.8584 2.41798 -0.945791 -25.8194 -13.3703 -17.222 3.77631 -24.5904 -1.70468 11.265 -20.0323 89.8359 1.01026 -21.1231 1.74131 7.71087 -2.27421 0.600236 -6.11406 27.2248 4.23427 -1.96452 7.32629 3.42623 -10.4566 2.3285 -0.910794 -16.7248 1.56686 -20.5296 -3.86856 -25.191 -1.74633 -17.5399 -5.10039 25.9291 -1.04759 -20.6242 1.75213 -24.1836 10.701 -1.24008 9 -3.38008e-006 -5.22998e-009 27.6677 -20.0598 25.4696 -0.575 -51.431 3.90177 3.3743 44.6033 -12.7852 2.13082e-007 -43.5882 -3.90177 23.9299 -21.978 2.22406 -9 6.86154e-007 -3.19538e-009 -43.9784 -14.6794 -38.9698 0.575 -51.4311 3.90177 6.6066 11.6914 34.9812 -7.46079e-007 -43.5882 -3.90177 -14.8934 1.08996 1.48152 
71.757 94.4383 -15.3511 -28.923 4.09345 -10.3001 1.23234e-007 14.8421 1.27317e-009 32.6475 10.4645 -6.97677 0.51659 29.8236 6.51843 27.6028 -16.6964 -24.8495 1.16803e-007 7.47049 6.44171e-007 1.99506 28.8411 -17.5953 6.64893 27.3161 3.27471 -2.94784 5.93879 -4.20517 10.8584 2.41798 -0.945791 -25.9203 -13.0058 -13.4767 3.77631 -24.5904 -1.70468 11.383 -20.2833 90.269 1.01026 -21.1231 1.74131 6.98034 -0.237948 0.503637 -6.11406 27.2248 4.23427 -1.96452 7.32629 3.42623 -10.4566 2.3285 -0.910794 -14.1928 2.64011 -23.9712 -3.86856 -25.191 -1.74633 -18.9397 -6.62122 23.1537 -1.04759 -20.6242 1.75213 -24.6058 9.9647 -1.36704 9 -3.38008e-006 -5.22998e-009 28.2712 -17.4148 24.6345 -0.575 -51.431 3.90177 5.18206 47.4552 -11.4858 2.13082e-007 -43.5882 -3.90177 25.0646 -24.9727 3.05717 -9 6.86154e-007 -3.19538e-009 -43.1243 -12.8205 -42.0912 0.575 -51.4311 3.90177 11.1688 15.1954 46.1051 -7.46079e-007 -43.5882 -3.90177 -12.6731 5.08327 1.58665 
71.2341 95.6237 -15.1026 -33.5617 2.44014 -15.5858 1.23234e-007 14.8421 1.27317e-009 37.1768 20.3887 -4.35227 0.51659 29.8236 6.51843 26.4862 -21.9972 -22.4413 1.16803e-007 7.47049 6.44171e-007 1.8897 32.5079 -16.4338 6.64893 27.3161 3.27471 -2.94784 5.93879 -4.20517 10.8584 2.41798 -0.945791 -27.5686 -14.9041 -8.54547 3.77631 -24.5904 -1.70468 13.0727 -21.1087 84.606 1.01026 -21.1231 1.74131 4.65589 5.2893 0.327528 -6.11406 27.2248 4.23427 -1.96452 7.32629 3.42623 -10.4566 2.3285 -0.910794 -15.4669 -2.75952 -28.0818 -3.86856 -25.191 -1.74633 -19.8895 -8.54863 15.7986 -1.04759 -20.6242 1.75213 -26.3421 10.5766 -1.32335 9 -3.38008e-006 -5.22998e-009 33.5236 -10.835 28.8311 -0.575 -51.431 3.90177 4.62087 45.649 -11.9094 2.13082e-007 -43.5882 -3.90177 25.4666 -25.4321 3.21086 -9 6.86154e-007 -3.19538e-009 -35.2029 -17.7174 -32.5231 0.575 -51.4311 3.90177 5.07393 16.776 52.9318 -7.46079e-007 -43.5882 -3.90177 -12.8877 7.50358 1.86799 
70.883 95.565 -15.4739 -31.5004 3.47133 -15.0405 1.23234e-007 14.8421 1.27317e-009 36.1581 21.1767 -5.44883 0.51659 29.8236 6.51843 22.3657 -21.8037 -19.4175 1.16803e-007 7.47049 6.44171e-007 3.65496 34.543 -15.2885 6.64893 27.3161 3.27471 -2.94784 5.93879 -4.20517 10.8584 2.41798 -0.945791 -29.601 -14.5503 -8.93975 3.77631 -24.5904 -1.70468 21.0503 -22.0968 66.3867 1.01026 -21.1231 1.74131 -5.10219 13.8212 0.725603 -6.11406 27.2248 4.23427 -1.96452 7.32629 3.42623 -10.4566 2.3285 -0.910794 -15.6256 -8.22599 -31.1115 -3.86856 -25.191 -1.74633 -21.099 -10.2263 14.0095 -1.04759 -20.6242 1.75213 -31.8294 14.3011 -0.635033 9 -3.38008e-006 -5.22998e-009 31.9057 -12.9852 27.6116 -0.575 -51.431 3.90177 4.47193 45.9664 -10.6955 2.13082e-007 -43.5882 -3.90177 23.6101 -24.1141 2.65808 -9 6.86154e-007 -3.19538e-009 -37.6259 -19.1028 -35.5861 0.575 -51.4311 3.90177 5.00201 17.7849 43.4165 -7.46079e-007 -43.5882 -3.90177 -13.8691 2.06977 1.47644 
70.2852 94.5868 -15.8831 -31.0959 3.72293 -15.4622 1.23234e-007 14.8421 1.27317e-009 33.2563 20.4798 -4.8786 0.51659 29.8236 6.51843 19.9927 -18.417 -17.7803 1.16803e-007 7.47049 6.44171e-007 3.92206 33.0432 -13.7834 6.64893 27.3161 3.27471 -2.94784 5.93879 -4.20517 10.8584 2.41798 -0.945791 -31.6097 -13.953 -10.7239 3.77631 -24.5904 -1.70468 32.5656 -17.1205 39.1074 1.01026 -21.1231 1.74131 -18.6935 12.7878 -0.0142793 -6.11406 27.2248 4.23427 -1.96452 7.32629 3.42623 -10.4566 2.3285 -0.910794 -14.0485 -12.6741 -32.1764 -3.86856 -25.191 -1.74633 -23.5176 -11.8177 20.0965 -1.04759 -20.6242 1.75213 -35.4038 15.9107 -0.267055 9 -3.38008e-006 -5.22998e-009 31.7713 -14.4664 26.5487 -0.575 -51.431 3.90177 5.43153 48.3533 -10.0016 2.13082e-007 -43.5882 -3.90177 23.3406 -25.2416 2.87858 -9 6.86154e-007 -3.19538e-009 -40.0598 -22.1517 -39.6889 0.575 -51.4311 3.90177 7.17872 28.6057 41.6463 -7.46079e-007 -43.5882 -3.90177 -12.7628 3.45817 1.4571 
67.4351 94.8098 -15.7533 -34.0319 3.19747 -17.6543 1.23234e-007 14.8421 1.27317e-009 31.7687 21.8398 -4.31324 0.51659 29.8236 6.51843 19.5352 -17.5119 -16.7079 1.16803e-007 7.47049 6.44171e-007 3.2573 32.8185 -12.4969 6.64893 27.3161 3.27471 -2.94784 5.93879 -4.20517 10.8584 2.41798 -0.945791 -26.4179 -10.5119 -6.07156 3.77631 -24.5904 -1.70468 34.8413 -25.1332 22.254 1.01026 -21.1231 1.74131 -23.685 1.94214 -2.79737 -6.11406 27.2248 4.23427 -1.96452 7.32629 3.42623 -10.4566 2.3285 -0.910794 -9.39679 -16.8867 -30.1468 -3.86856 -25.191 -1.74633 -26.3066 -12.5216 30.2003 -1.04759 -20.6242 1.75213 -34.4914 14.5357 -0.602378 9 -3.38008e-006 -5.22998e-009 37.514 -11.1156 29.285 -0.575 -51.431 3.90177 4.9083 49.0901 -11.7072 2.13082e-007 -43.5882 -3.90177 22.3931 -26.2905 2.96684 -9 6.86154e-007 -3.19538e-009 -35.9325 -27.0765 -37.4656 0.575 -51.4311 3.90177 4.85911 46.9287 40.8758 -7.46079e-007 -43.5882 -3.90177 -12.728 5.28484 1.64281 
63.66 94.4618 -15.6035 -34.3694 2.0451 -18.0571 1.23234e-007 14.8421 1.27317e-009 28.7636 21.2496 -6.28898 0.51659 29.8236 6.51843 17.5057 -16.1514 -15.6259 1.16803e-007 7.47049 6.44171e-007 5.17481 33.0954 -12.6361 6.64893 27.3161 3.27471 -2.94784 5.93879 -4.20517 10.8584 2.41798 -0.945791 -17.4506 -4.03134 1.82351 3.77631 -24.5904 -1.70468 30.6287 -41.0474 17.2047 1.01026 -21.1231 1.74131 -21.5797 -5.60708 -4.51569 -6.11406 27.2248 4.23427 -1.96452 7.32629 3.42623 -10.4566 2.3285 -0.910794 -3.28688 -17.47 -27.6266 -3.86856 -25.191 -1.74633 -25.3981 -16.7794 36.1686 -1.04759 -20.6242 1.75213 -32.9702 14.3742 -0.655365 9 -3.38008e-006 -5.22998e-009 40.7303 -9.31289 30.0664 -0.575 -51.431 3.90177 4.42787 50.494 -13.1903 2.13082e-007 -43.5882 -3.90177 20.4175 -26.7618 2.78243 -9 6.86154e-007 -3.19538e-009 -35.6485 -30.7969 -40.1297 0.575 -51.4311 3.90177 3.15581 71.3745 32.7339 -7.46079e-007 -43.5882 -3.90177 -13.7689 0.827329 1.32322 
